<?xml version="1.0" encoding="UTF-8" standalone="no"?>
<!DOCTYPE svg PUBLIC "-//W3C//DTD SVG 1.0//EN" "http://www.w3.org/TR/2001/REC-SVG-20010904/DTD/svg10.dtd">
<!-- Created with Inkscape (http://www.inkscape.org/) -->
<svg xmlns:dc="http://purl.org/dc/elements/1.1/" xmlns:cc="http://creativecommons.org/ns#" xmlns:rdf="http://www.w3.org/1999/02/22-rdf-syntax-ns#" xmlns:svg="http://www.w3.org/2000/svg" xmlns="http://www.w3.org/2000/svg" xmlns:sodipodi="http://sodipodi.sourceforge.net/DTD/sodipodi-0.dtd" xmlns:inkscape="http://www.inkscape.org/namespaces/inkscape" version="1.0" id="Ebene_1" x="0px" y="0px" width="192.756px" height="192.756px" viewBox="0 0 192.756 192.756" enable-background="new 0 0 192.756 192.756" xml:space="preserve" sodipodi:version="0.32" inkscape:version="0.46" sodipodi:docname="Young_Boys.svg" inkscape:output_extension="org.inkscape.output.svg.inkscape"><metadata id="metadata2463"><rdf:RDF><cc:Work rdf:about=""><dc:format>image/svg+xml</dc:format><dc:type rdf:resource="http://purl.org/dc/dcmitype/StillImage"/></cc:Work></rdf:RDF></metadata><defs id="defs2461"><inkscape:perspective sodipodi:type="inkscape:persp3d" inkscape:vp_x="0 : 96.377998 : 1" inkscape:vp_y="0 : 1000 : 0" inkscape:vp_z="192.756 : 96.377998 : 1" inkscape:persp3d-origin="96.377998 : 64.251999 : 1" id="perspective2465"/></defs><sodipodi:namedview inkscape:window-height="809" inkscape:window-width="916" inkscape:pageshadow="2" inkscape:pageopacity="0.0" guidetolerance="10.0" gridtolerance="10.0" objecttolerance="10.0" borderopacity="1.0" bordercolor="#666666" pagecolor="#ffffff" id="base" showgrid="false" inkscape:zoom="2.3968126" inkscape:cx="96.377998" inkscape:cy="96.377998" inkscape:window-x="259" inkscape:window-y="66" inkscape:current-layer="Ebene_1"/>
<polygon fill-rule="evenodd" clip-rule="evenodd" fill="none" points="0,0 192.756,0 192.756,192.756 0,192.756 0,0 " id="polygon2446"/>
<path fill-rule="evenodd" clip-rule="evenodd" d="M141.543,101.195c2.709,0,4.533-2.52,4.533-5.668V79.51h-4.533V101.195z   M141.543,123.863h4.533v17.012c0,3.346-1.824,6.021-4.533,6.021V123.863z M79.871,169.463c-3.985,0-7.728-1.82-9.922-3.264  c-2.193,1.443-5.598,3.264-9.631,3.264H15.543L2.835,157.691v-10.795l38.401,0.043c-0.913-1.234-1.625-2.465-2.2-3.697  c-23.907,0.012-36.201-14.484-36.201-30.715v-3.322V57.073h24.336c7.278,0,12.896,4.876,16.359,10.877l10.423,18.053h2.458V67.569  L32.756,44.624L22.67,44.631L10.732,33.058v-9.765h60.611l10.503,9.481l0,14.494l3.125,2.854l11.76-7.726l11.76-7.726  c1.807-1.077,2.039-2.208,0.182-2.199l-5.877,0.019v-0.356v-8.842h37.422l11.141,10.768l-0.037,9.135l-10.701,0.018l-14.023,9.628  l-0.008,4.23h29.076c7.504,0,15.736,4.666,21.902,12.485c3.488,4.424,6.342,9.566,8.387,14.49  c5.244,12.629,5.68,28.319-5.564,37.833c11.111,7.068,11.969,26.35,5.357,36.572c-4.277,6.613-11.75,11.01-20.225,11.01H79.871z   M75.259,124.496l23.012-0.041v22.441h-21.15c-2.192-7.189-7.334-13.021-11.002-16.965  C66.826,127.643,68.873,124.582,75.259,124.496z" id="path2448"/>
<path fill-rule="evenodd" clip-rule="evenodd" fill="#F9F201" d="M29.423,97.498v0.003l4.933-0.003  c-0.811,4.252-4.125,7.453-8.07,7.453H14.769v4.254h12.57c6.442,0,11.697-6.17,11.697-13.733c0-4.812-2.127-9.059-5.333-11.512  c3.206-2.258,5.333-6.165,5.333-10.591c0-6.958-5.255-12.633-11.697-12.633H6.476v21.003v4.264v7.233v4.261v11.708h0.008  c-0.005,0.162-0.008,0.326-0.008,0.492c0,9.066,7.48,16.461,16.651,16.461l16.29-0.008c-0.169,1.217-0.257,2.461-0.257,3.727  c0,8.373,3.836,15.803,9.699,20.326c-0.914,0.215-1.866,0.332-2.844,0.332l-39.538,0.006v4.264h39.54  c9.171,0,16.651-7.395,16.651-16.463c0-7.975-5.789-14.656-13.424-16.148c-0.496,1.148-0.969,2.531-1.313,4.102  c5.886,0.916,10.414,5.975,10.414,12.043c0,3.971-1.937,7.508-4.923,9.736c-5.895-3.5-9.915-10.346-9.915-18.189  c0-11.383,8.466-20.668,18.846-20.668l33.201-0.012v-4.254H62.123c-10.074,0-18.668,7.104-21.749,16.932l-17.244,0.008  c-6.792,0-12.331-5.475-12.331-12.189s5.54-12.191,12.331-12.197L29.423,97.498L29.423,97.498z" id="path2450"/>
<path fill-rule="evenodd" clip-rule="evenodd" d="M10.732,81.739V64.966h15.864c4.379,0,7.95,3.767,7.95,8.387  c0,4.619-3.571,8.387-7.95,8.387H10.732L10.732,81.739z" id="path2452"/>
<path fill-rule="evenodd" clip-rule="evenodd" d="M10.732,95.212v-1.977v-7.233h15.553c3.876,0,7.144,3.09,8.026,7.231l-4.838,0.001  l-6.347,0c-4.915,0-9.342,2.124-12.395,5.49V95.212L10.732,95.212z" id="path2454"/>
<path fill-rule="evenodd" clip-rule="evenodd" fill="#F9F201" d="M58.973,93.236V66.462L20.927,29.496h-5.926v-3.634l52.795-0.001  v3.634h-9.812L84.622,53.52l26.563-17.482c1.848-1.215,3.523-2.278,3.346-4.378c-0.123-1.456-1.092-2.162-5.404-2.163l-3.783-0.001  v-3.644h31.332v3.644h-2.406c-2.563,0-4.93,0.788-7.125,2.35c-2.191,1.558-6.492,4.284-10.033,6.695L87.158,58.932l0.005,34.241  l8.391,0.02v4.304H43.955l0.024-4.261H58.973L58.973,93.236z" id="path2456"/>
<path fill-rule="evenodd" clip-rule="evenodd" fill="#F9F201" d="M148.645,130.953v9.324c0,4.244-1.125,6.979-3.316,8.256  c-1.617,0.941-4.961,2.008-10.24,2.008h-5.699v-41.336h5.699c5.279,0,8.623,1.064,10.24,2.006c2.191,1.277,3.316,4.014,3.316,8.256  V130.953L148.645,130.953z M148.645,86.003v9.02c0,4.104-1.125,6.75-3.316,7.987c-1.617,0.91-4.961,1.941-10.24,1.941h-5.699V64.966  h5.699c5.279,0,8.623,1.03,10.24,1.941c2.191,1.236,3.316,3.881,3.316,7.986V86.003L148.645,86.003z M62.754,150.541  c-1.251,1.699-2.85,3.207-4.593,4.264h96.04c13.26,0,24.049-10.711,24.049-23.846c0-11.287-6.357-21.396-14.021-23.846  c7.664-2.381,14.021-12.212,14.021-23.188c0-12.772-10.789-23.189-24.039-23.189H94.263v4.23h6.571v85.575H62.754L62.754,150.541z" id="path2458"/>
</svg>